{"title":"Fury 2014 720p HC HDCAM NEW SOURCE x264 Pimp4003","uid":11548054,"size":2252714166,"categoryP":"video","categoryS":"movies","magnet":"?xt=urn:btih:73f8bcdf61bbe7d0b1c4e9ea35a6dee1ce4ed9c0&amp;dn=Fury+2014+720p+HC+HDCAM+NEW+SOURCE+x264+Pimp4003&amp;tr=udp%3A%2F%2Ftracker.openbittorrent.com%3A80&amp;tr=udp%3A%2F%2Fopen.demonii.com%3A1337&amp;tr=udp%3A%2F%2Ftracker.coppersurfer.tk%3A6969&amp;tr=udp%3A%2F%2Fexodus.desync.com%3A6969","seeders":6,"leechers":0,"uploader":"shawnmurthy","files":-1,"time":1416754628,"description":"FOR SCREENSHOTS AND FASTER DOWNLOAD SPEEDS PLEASE VISIT.....SOURCE IS PIMP4003....HAS SPANISH SUBS...IT TOOK ME A WHILE SINCE MY FIRST UPLOAD OF FURY TO FIND A BETTER CAM AND I DID...I AM GOING TO BE HONEST THIS A LITTLE BETTER THEN MY FIRST BUT NOT THAT MUCH...VIDEO IS STILL A LITTLE GRAINY DID WHAT I COULD TO IMPROVE THAT....AUDIO HAD ECHO FIXED THAT AS WELL.............ENJOY\n\nFury 2014 720p HC HDCAM NEW SOURCE x264 Pimp4003\n &lt;a href=&quot;\nhttp://www.imdb.com/title/tt2713180/&quot; rel=&quot;nofollow&quot; target=&quot;_NEW&quot;&gt;\nhttp://www.imdb.com/title/tt2713180/&lt;/a&gt;\n\nApril, 1945. As the Allies make their final push in the European Theatre, a battle-hardened army sergeant named Wardaddy commands a Sherman tank and his five-man crew on a deadly mission behind enemy lines. Out-numbered, out-gunned, and with a rookie soldier thrust into their platoon, Wardaddy and his men face overwhelming odds in their heroic attempts to strike at the heart of Nazi Germany.\n\nDirector: David Ayer\nWriter: David Ayer\nStars: Brad Pitt, Shia LaBeouf, Logan Lerman | See full cast and crew Â»\n\nPIMP4003\n\nVideo\nID                                       : 1\nFormat                                   : MPEG-4 Visual\nFormat profile                           : Simple@L3\nFormat settings, BVOP                    : No\nFormat settings, QPel                    : No\nFormat settings, GMC                     : No warppoints\nFormat settings, Matrix                  : Default (H.263)\nCodec ID                                 : 20\nDuration                                 : 1h 57mn\nBit rate                                 : 2 380 Kbps\nWidth                                    : 1 280 pixels\nHeight                                   : 536 pixels\nDisplay aspect ratio                     : 2.40:1\nFrame rate mode                          : Variable\nFrame rate                               : 59.940 fps\nMinimum frame rate                       : 59.916 fps\nMaximum frame rate                       : 60.157 fps\nColor space                              : YUV\nChroma subsampling                       : 4:2:0\nBit depth                                : 8 bits\nScan type                                : Progressive\nCompression mode                         : Lossy\nBits/(Pixel*Frame)                       : 0.058\nStream size                              : 1.96 GiB (93%)\nWriting library                          : ZJMedia MPEG Encoder\nEncoded date                             : UTC 1970-01-01 00:00:00\nTagged date                              : UTC 1970-01-01 00:00:00\n\nAudio\nID                                       : 2\nFormat                                   : AAC\nFormat/Info                              : Advanced Audio Codec\nFormat profile                           : LC\nCodec ID                                 : 40\nDuration                                 : 1h 57mn\nBit rate mode                            : Variable\nBit rate                                 : 160 Kbps\nChannel(s)                               : 2 channels\nChannel positions                        : Front: L R\nSampling rate                            : 48.0 KHz\nCompression mode                         : Lossy\nStream size                              : 135 MiB (6%)\nEncoded date                             : UTC 1970-01-01 00:00:00\nTagged date                              : UTC 1970-01-01 00:00:00","torrent":{"xt":"urn:btih:73f8bcdf61bbe7d0b1c4e9ea35a6dee1ce4ed9c0","amp;dn":"Fury+2014+720p+HC+HDCAM+NEW+SOURCE+x264+Pimp4003","amp;tr":["udp%3A%2F%2Ftracker.openbittorrent.com%3A80","udp%3A%2F%2Fopen.demonii.com%3A1337","udp%3A%2F%2Ftracker.coppersurfer.tk%3A6969","udp%3A%2F%2Fexodus.desync.com%3A6969"],"infoHash":"73f8bcdf61bbe7d0b1c4e9ea35a6dee1ce4ed9c0","infoHashBuffer":{"type":"Buffer","data":[115,248,188,223,97,187,231,208,177,196,233,234,53,166,222,225,206,78,217,192]},"announce":[],"urlList":[]}}